<mxfile host="app.diagrams.net" agent="Mozilla/5.0 (Windows NT 10.0; Win64; x64) AppleWebKit/537.36 (KHTML, like Gecko) Chrome/130.0.0.0 Safari/537.36" version="24.8.0">
  <diagram name="Side-1" id="xK1SLszGiJM9aApIv1kd">
    <mxGraphModel dx="2308" dy="1948" grid="1" gridSize="10" guides="1" tooltips="1" connect="1" arrows="1" fold="1" page="1" pageScale="1" pageWidth="827" pageHeight="1169" math="0" shadow="0">
      <root>
        <mxCell id="0" />
        <mxCell id="1" parent="0" />
        <mxCell id="t4XDoyJSb_UWK4iszZcu-12" style="edgeStyle=orthogonalEdgeStyle;rounded=0;orthogonalLoop=1;jettySize=auto;html=1;strokeWidth=2;" edge="1" parent="1" source="t4XDoyJSb_UWK4iszZcu-1" target="t4XDoyJSb_UWK4iszZcu-3">
          <mxGeometry relative="1" as="geometry" />
        </mxCell>
        <mxCell id="t4XDoyJSb_UWK4iszZcu-22" style="edgeStyle=orthogonalEdgeStyle;rounded=0;orthogonalLoop=1;jettySize=auto;html=1;exitX=-0.002;exitY=0.845;exitDx=0;exitDy=0;exitPerimeter=0;strokeWidth=2;" edge="1" parent="1" source="t4XDoyJSb_UWK4iszZcu-1" target="t4XDoyJSb_UWK4iszZcu-21">
          <mxGeometry relative="1" as="geometry" />
        </mxCell>
        <mxCell id="t4XDoyJSb_UWK4iszZcu-30" style="edgeStyle=orthogonalEdgeStyle;rounded=0;orthogonalLoop=1;jettySize=auto;html=1;exitX=0.25;exitY=1;exitDx=0;exitDy=0;entryX=0.5;entryY=0;entryDx=0;entryDy=0;strokeWidth=2;" edge="1" parent="1" source="t4XDoyJSb_UWK4iszZcu-1" target="t4XDoyJSb_UWK4iszZcu-26">
          <mxGeometry relative="1" as="geometry" />
        </mxCell>
        <mxCell id="t4XDoyJSb_UWK4iszZcu-31" style="edgeStyle=orthogonalEdgeStyle;rounded=0;orthogonalLoop=1;jettySize=auto;html=1;exitX=0.75;exitY=1;exitDx=0;exitDy=0;entryX=0.5;entryY=0;entryDx=0;entryDy=0;strokeWidth=2;" edge="1" parent="1" source="t4XDoyJSb_UWK4iszZcu-1" target="t4XDoyJSb_UWK4iszZcu-28">
          <mxGeometry relative="1" as="geometry" />
        </mxCell>
        <mxCell id="t4XDoyJSb_UWK4iszZcu-1" value="&lt;font style=&quot;font-size: 18px;&quot;&gt;ADC&lt;br&gt;Control&lt;/font&gt;" style="rounded=1;whiteSpace=wrap;html=1;" vertex="1" parent="1">
          <mxGeometry x="240" y="200" width="120" height="160" as="geometry" />
        </mxCell>
        <mxCell id="t4XDoyJSb_UWK4iszZcu-13" style="edgeStyle=orthogonalEdgeStyle;rounded=0;orthogonalLoop=1;jettySize=auto;html=1;entryX=0.5;entryY=1;entryDx=0;entryDy=0;strokeWidth=2;startArrow=classic;startFill=1;" edge="1" parent="1" source="t4XDoyJSb_UWK4iszZcu-3" target="t4XDoyJSb_UWK4iszZcu-5">
          <mxGeometry relative="1" as="geometry" />
        </mxCell>
        <mxCell id="t4XDoyJSb_UWK4iszZcu-14" style="edgeStyle=orthogonalEdgeStyle;rounded=0;orthogonalLoop=1;jettySize=auto;html=1;startArrow=classic;startFill=1;strokeWidth=2;" edge="1" parent="1" source="t4XDoyJSb_UWK4iszZcu-3">
          <mxGeometry relative="1" as="geometry">
            <mxPoint x="640" y="280" as="targetPoint" />
          </mxGeometry>
        </mxCell>
        <mxCell id="t4XDoyJSb_UWK4iszZcu-3" value="&lt;span style=&quot;font-size: 18px;&quot;&gt;Internal&lt;br&gt;Memory&lt;/span&gt;" style="rounded=1;whiteSpace=wrap;html=1;" vertex="1" parent="1">
          <mxGeometry x="440" y="200" width="120" height="160" as="geometry" />
        </mxCell>
        <mxCell id="t4XDoyJSb_UWK4iszZcu-10" style="edgeStyle=orthogonalEdgeStyle;rounded=0;orthogonalLoop=1;jettySize=auto;html=1;entryX=0.5;entryY=1;entryDx=0;entryDy=0;strokeWidth=2;startArrow=classic;startFill=1;endArrow=none;endFill=0;" edge="1" parent="1" source="t4XDoyJSb_UWK4iszZcu-4" target="t4XDoyJSb_UWK4iszZcu-3">
          <mxGeometry relative="1" as="geometry" />
        </mxCell>
        <mxCell id="t4XDoyJSb_UWK4iszZcu-33" style="edgeStyle=orthogonalEdgeStyle;rounded=0;orthogonalLoop=1;jettySize=auto;html=1;exitX=0.75;exitY=1;exitDx=0;exitDy=0;entryX=0.5;entryY=0;entryDx=0;entryDy=0;strokeWidth=2;" edge="1" parent="1" source="t4XDoyJSb_UWK4iszZcu-4" target="t4XDoyJSb_UWK4iszZcu-7">
          <mxGeometry relative="1" as="geometry" />
        </mxCell>
        <mxCell id="t4XDoyJSb_UWK4iszZcu-35" style="edgeStyle=orthogonalEdgeStyle;rounded=0;orthogonalLoop=1;jettySize=auto;html=1;exitX=0.25;exitY=1;exitDx=0;exitDy=0;entryX=0.5;entryY=0;entryDx=0;entryDy=0;strokeWidth=2;" edge="1" parent="1" source="t4XDoyJSb_UWK4iszZcu-4" target="t4XDoyJSb_UWK4iszZcu-34">
          <mxGeometry relative="1" as="geometry" />
        </mxCell>
        <mxCell id="t4XDoyJSb_UWK4iszZcu-4" value="&lt;span style=&quot;font-size: 18px;&quot;&gt;DAC&lt;br&gt;Control&lt;/span&gt;" style="rounded=1;whiteSpace=wrap;html=1;" vertex="1" parent="1">
          <mxGeometry x="440" y="440" width="120" height="80" as="geometry" />
        </mxCell>
        <mxCell id="t4XDoyJSb_UWK4iszZcu-5" value="&lt;span style=&quot;font-size: 18px;&quot;&gt;External&lt;br&gt;Memory&lt;/span&gt;" style="rounded=1;whiteSpace=wrap;html=1;" vertex="1" parent="1">
          <mxGeometry x="440" y="-40" width="120" height="160" as="geometry" />
        </mxCell>
        <mxCell id="t4XDoyJSb_UWK4iszZcu-7" value="" style="shape=offPageConnector;whiteSpace=wrap;html=1;rotation=-90;size=0.12499999999999858;direction=west;" vertex="1" parent="1">
          <mxGeometry x="394" y="640" width="20" height="70" as="geometry" />
        </mxCell>
        <mxCell id="t4XDoyJSb_UWK4iszZcu-8" value="&lt;font style=&quot;font-size: 18px;&quot;&gt;DAC DATA&lt;br&gt;&lt;/font&gt;&lt;div style=&quot;font-size: 18px;&quot;&gt;&lt;font style=&quot;font-size: 18px;&quot;&gt;(To ANFE)&lt;/font&gt;&lt;/div&gt;" style="text;html=1;align=center;verticalAlign=middle;whiteSpace=wrap;rounded=0;" vertex="1" parent="1">
          <mxGeometry x="244" y="660" width="130" height="30" as="geometry" />
        </mxCell>
        <mxCell id="t4XDoyJSb_UWK4iszZcu-15" value="" style="shape=hexagon;perimeter=hexagonPerimeter2;whiteSpace=wrap;html=1;fixedSize=1;size=10;" vertex="1" parent="1">
          <mxGeometry x="640" y="270" width="80" height="20" as="geometry" />
        </mxCell>
        <mxCell id="t4XDoyJSb_UWK4iszZcu-16" value="&lt;font style=&quot;font-size: 18px;&quot;&gt;MCU DATA&lt;br&gt;&lt;/font&gt;&lt;div style=&quot;font-size: 18px;&quot;&gt;&lt;font style=&quot;font-size: 18px;&quot;&gt;(To and From MCU)&lt;/font&gt;&lt;/div&gt;" style="text;html=1;align=center;verticalAlign=middle;whiteSpace=wrap;rounded=0;" vertex="1" parent="1">
          <mxGeometry x="720" y="270" width="170" height="30" as="geometry" />
        </mxCell>
        <mxCell id="t4XDoyJSb_UWK4iszZcu-18" style="edgeStyle=orthogonalEdgeStyle;rounded=0;orthogonalLoop=1;jettySize=auto;html=1;entryX=0;entryY=0.156;entryDx=0;entryDy=0;entryPerimeter=0;strokeWidth=2;" edge="1" parent="1" source="t4XDoyJSb_UWK4iszZcu-17" target="t4XDoyJSb_UWK4iszZcu-1">
          <mxGeometry relative="1" as="geometry" />
        </mxCell>
        <mxCell id="t4XDoyJSb_UWK4iszZcu-17" value="" style="shape=offPageConnector;whiteSpace=wrap;html=1;rotation=-90;size=0.12499999999999858;direction=east;" vertex="1" parent="1">
          <mxGeometry x="140" y="190" width="20" height="70" as="geometry" />
        </mxCell>
        <mxCell id="t4XDoyJSb_UWK4iszZcu-20" style="edgeStyle=orthogonalEdgeStyle;rounded=0;orthogonalLoop=1;jettySize=auto;html=1;entryX=0;entryY=0.5;entryDx=0;entryDy=0;strokeWidth=2;" edge="1" parent="1" source="t4XDoyJSb_UWK4iszZcu-19" target="t4XDoyJSb_UWK4iszZcu-1">
          <mxGeometry relative="1" as="geometry" />
        </mxCell>
        <mxCell id="t4XDoyJSb_UWK4iszZcu-19" value="" style="shape=offPageConnector;whiteSpace=wrap;html=1;rotation=-90;size=0.12499999999999858;direction=east;" vertex="1" parent="1">
          <mxGeometry x="140" y="245" width="20" height="70" as="geometry" />
        </mxCell>
        <mxCell id="t4XDoyJSb_UWK4iszZcu-21" value="" style="shape=offPageConnector;whiteSpace=wrap;html=1;rotation=-90;size=0.12499999999999858;direction=west;" vertex="1" parent="1">
          <mxGeometry x="140" y="300" width="20" height="70" as="geometry" />
        </mxCell>
        <mxCell id="t4XDoyJSb_UWK4iszZcu-23" value="&lt;font style=&quot;font-size: 18px;&quot;&gt;ADC Voltage&lt;br&gt;&lt;/font&gt;&lt;div style=&quot;font-size: 18px;&quot;&gt;&lt;font style=&quot;font-size: 18px;&quot;&gt;(From ANFE)&lt;/font&gt;&lt;/div&gt;" style="text;html=1;align=center;verticalAlign=middle;whiteSpace=wrap;rounded=0;" vertex="1" parent="1">
          <mxGeometry x="-35" y="200" width="130" height="30" as="geometry" />
        </mxCell>
        <mxCell id="t4XDoyJSb_UWK4iszZcu-24" value="&lt;font style=&quot;font-size: 18px;&quot;&gt;ADC Current&lt;br&gt;&lt;/font&gt;&lt;div style=&quot;font-size: 18px;&quot;&gt;&lt;font style=&quot;font-size: 18px;&quot;&gt;(From ANFE)&lt;/font&gt;&lt;/div&gt;" style="text;html=1;align=center;verticalAlign=middle;whiteSpace=wrap;rounded=0;" vertex="1" parent="1">
          <mxGeometry x="-35" y="265" width="130" height="30" as="geometry" />
        </mxCell>
        <mxCell id="t4XDoyJSb_UWK4iszZcu-25" value="&lt;font style=&quot;font-size: 18px;&quot;&gt;Range Selection&lt;br&gt;&lt;/font&gt;&lt;div style=&quot;font-size: 18px;&quot;&gt;&lt;font style=&quot;font-size: 18px;&quot;&gt;(From ANFE)&lt;/font&gt;&lt;/div&gt;" style="text;html=1;align=center;verticalAlign=middle;whiteSpace=wrap;rounded=0;" vertex="1" parent="1">
          <mxGeometry x="-50" y="330" width="160" height="30" as="geometry" />
        </mxCell>
        <mxCell id="t4XDoyJSb_UWK4iszZcu-26" value="" style="shape=offPageConnector;whiteSpace=wrap;html=1;rotation=-90;size=0.12499999999999858;direction=west;" vertex="1" parent="1">
          <mxGeometry x="140" y="380" width="20" height="70" as="geometry" />
        </mxCell>
        <mxCell id="t4XDoyJSb_UWK4iszZcu-27" value="&lt;font style=&quot;font-size: 18px;&quot;&gt;Voltage PGA Control&lt;br&gt;&lt;/font&gt;&lt;div style=&quot;font-size: 18px;&quot;&gt;&lt;font style=&quot;font-size: 18px;&quot;&gt;(To ANFE)&lt;/font&gt;&lt;/div&gt;" style="text;html=1;align=center;verticalAlign=middle;whiteSpace=wrap;rounded=0;" vertex="1" parent="1">
          <mxGeometry x="-70" y="400" width="180" height="30" as="geometry" />
        </mxCell>
        <mxCell id="t4XDoyJSb_UWK4iszZcu-28" value="" style="shape=offPageConnector;whiteSpace=wrap;html=1;rotation=-90;size=0.12499999999999858;direction=west;" vertex="1" parent="1">
          <mxGeometry x="140" y="460" width="20" height="70" as="geometry" />
        </mxCell>
        <mxCell id="t4XDoyJSb_UWK4iszZcu-29" value="&lt;font style=&quot;font-size: 18px;&quot;&gt;Current PGA Control&lt;br&gt;&lt;/font&gt;&lt;div style=&quot;font-size: 18px;&quot;&gt;&lt;font style=&quot;font-size: 18px;&quot;&gt;(To ANFE)&lt;/font&gt;&lt;/div&gt;" style="text;html=1;align=center;verticalAlign=middle;whiteSpace=wrap;rounded=0;" vertex="1" parent="1">
          <mxGeometry x="-70" y="480" width="180" height="30" as="geometry" />
        </mxCell>
        <mxCell id="t4XDoyJSb_UWK4iszZcu-34" value="" style="shape=offPageConnector;whiteSpace=wrap;html=1;rotation=-90;size=0.12499999999999858;direction=west;" vertex="1" parent="1">
          <mxGeometry x="394" y="560" width="20" height="70" as="geometry" />
        </mxCell>
        <mxCell id="t4XDoyJSb_UWK4iszZcu-36" value="&lt;font style=&quot;font-size: 18px;&quot;&gt;DAC Range&lt;br&gt;&lt;/font&gt;&lt;div style=&quot;font-size: 18px;&quot;&gt;&lt;font style=&quot;font-size: 18px;&quot;&gt;(To ANFE)&lt;/font&gt;&lt;/div&gt;" style="text;html=1;align=center;verticalAlign=middle;whiteSpace=wrap;rounded=0;" vertex="1" parent="1">
          <mxGeometry x="244" y="580" width="130" height="30" as="geometry" />
        </mxCell>
      </root>
    </mxGraphModel>
  </diagram>
</mxfile>
